<svg xmlns="http://www.w3.org/2000/svg" aria-hidden="true" style="position:absolute;width:0;height:0;overflow:hidden">
  <defs>
    <symbol id="icon-logo" viewBox="0 0 34 32">
      <path d="M20.302 12.469c-1.942-2.734-4.034-4.902-6.353-7.475L0 12.172v1.605l13.783-6.651 6.51 6.396.01-1.053zm0 3.76c-1.942-2.441-4.034-4.378-6.353-6.676L0 15.965v1.434l13.783-5.941 6.509 5.712.011-.941zm0 3.769c-1.942-2.132-4.034-3.823-6.353-5.83L0 19.767v1.252l13.783-5.187 6.51 4.987.01-.82zm0 3.585c-1.942-2.208-4.034-3.96-6.353-6.038L0 23.344v1.296l13.783-5.373 6.509 5.167.011-.851zm0 3.786c-1.942-1.863-4.034-3.341-6.353-5.094L0 27.167v1.093l13.783-4.533 6.509 4.358.011-.717zm0 3.867c-1.942-1.349-4.034-2.419-6.353-3.688L0 31.091v.792l13.783-3.282 6.509 3.155.011-.519zm.939-12.468 8.329-4.572 3.934 4.395.02-2.447c-.035.014-.329-.221-.883-.705v1.039l-2.971-3.744-8.429 4.932v1.102zm12.27 1.5c-1.174-1.652-2.437-2.962-3.839-4.517l-8.43 4.339v.97l8.329-4.02 3.934 3.865.006-.637zm0 2.272c-1.174-1.476-2.437-2.646-3.839-4.035l-8.43 3.875v.866l8.329-3.59 3.934 3.452.006-.569zm0 2.278c-1.174-1.288-2.437-2.31-3.839-3.523l-8.43 3.384v.756l8.329-3.135 3.934 3.014.006-.497zm0 2.166c-1.174-1.335-2.437-2.393-3.839-3.649l-8.43 3.506v.783l8.329-3.247 3.934 3.123.006-.515zm0 2.288c-1.174-1.126-2.437-2.019-3.839-3.078l-8.43 2.957v.661l8.329-2.739 3.934 2.634.006-.434.001-.001zm0 2.337c-1.174-.815-2.437-1.462-3.839-2.229l-8.43 2.142V32l8.329-1.983 3.934 1.907.006-.315zM0 9.987l13.783-7.563 6.51 7.273.033-4.051c-.058.023-.545-.366-1.461-1.166v1.718L13.95 0 .001 8.163v1.824z"/>
    </symbol>
    <symbol id="icon-arrow" viewBox="0 0 26 32">
      <path stroke-width="1.391" d="m1.391 16 23.478 14.459V1.541L1.391 16z"/>
    </symbol>
    <symbol id="icon-facebook" viewBox="0 0 32 32">
      <path stroke-linecap="round" stroke-miterlimit="10" stroke-width="2" d="M18.667 12.4v3.867h3.467c.267 0 .4.267.4.533l-.533 2.533c0 .133-.267.267-.4.267h-2.933v9.733h-4v-9.6h-2.267c-.267 0-.4-.133-.4-.4V16.8c0-.267.133-.4.4-.4h2.267V12c0-2.267 1.733-4 4-4h3.6c.267 0 .4.133.4.4v3.2c0 .267-.133.4-.4.4h-3.2c-.267 0-.4.133-.4.4z"/>
      <path stroke-linecap="round" stroke-linejoin="round" stroke-width="2" d="M20 29.333h-8c-6.667 0-9.333-2.667-9.333-9.333v-8c0-6.667 2.667-9.333 9.333-9.333h8c6.667 0 9.333 2.667 9.333 9.333v8c0 6.667-2.667 9.333-9.333 9.333z"/>
    </symbol>
    <symbol id="icon-instagram" viewBox="0 0 32 32">
      <path stroke-linecap="round" stroke-linejoin="round" stroke-width="2" d="M12 29.333h8c6.667 0 9.333-2.667 9.333-9.333v-8c0-6.667-2.667-9.333-9.333-9.333h-8c-6.667 0-9.333 2.667-9.333 9.333v8c0 6.667 2.667 9.333 9.333 9.333z"/>
      <path stroke-linecap="round" stroke-linejoin="round" stroke-width="2" d="M16 20.667a4.676 4.676 0 0 0 3.3-1.367 4.68 4.68 0 0 0 1.367-3.3 4.676 4.676 0 0 0-1.367-3.3 4.68 4.68 0 0 0-3.3-1.367 4.667 4.667 0 0 0 0 9.334z"/>
      <path stroke-linecap="round" stroke-linejoin="round" stroke-width="2.667" d="M23.515 9.333h.016"/>
    </symbol>
    <symbol id="icon-telegram" viewBox="0 0 32 32">
      <path stroke-width="1.231" d="M16 1.231C7.844 1.231 1.231 7.844 1.231 16S7.844 30.769 16 30.769c8.156 0 14.769-6.613 14.769-14.769S24.156 1.231 16 1.231zm7.254 10.118-2.425 11.422c-.178.81-.661 1.007-1.334.625l-3.692-2.72-1.78 1.716a.93.93 0 0 1-.738.363h-.006l.262-3.759 6.843-6.181c.295-.262-.066-.411-.459-.149l-8.454 5.324-3.643-1.137c-.788-.25-.81-.788.166-1.174l14.235-5.487c.662-.241 1.126.414.994 1.302l.031-.145z"/>
    </symbol>
    <symbol id="icon-youtube" viewBox="0 0 39 32">
      <path stroke-linecap="round" stroke-linejoin="round" stroke-miterlimit="10" stroke-width="2.667" d="M28.444 30.222H10.666c-5.333 0-8.889-3.556-8.889-8.889V10.666c0-5.333 3.556-8.889 8.889-8.889h17.778c5.333 0 8.889 3.556 8.889 8.889v10.667c0 5.333-3.556 8.889-8.889 8.889z"/>
      <path stroke-linecap="round" stroke-linejoin="round" stroke-miterlimit="10" stroke-width="2.667" d="m18.489 11.556 4.444 2.667c1.6 1.067 1.6 2.667 0 3.733l-4.444 2.667c-1.778 1.067-3.2.178-3.2-1.778v-5.333c0-2.311 1.422-3.022 3.2-1.956z"/>
    </symbol>
    <symbol id="icon-button" viewBox="0 0 32 32">
      <path stroke-linecap="round" stroke-linejoin="round" stroke-width="2.667" d="M2 16h28M2 6.667h28M2 25.333h28"/>
    </symbol>
  </defs>
</svg>
